<svg id="Layer_1" data-name="Layer 1" xmlns="http://www.w3.org/2000/svg" viewBox="0 0 892 205"><defs><style>.cls-1{fill:#191919;}.cls-2{fill:#4a9cff;}.cls-3{fill:none;}.cls-4{fill:#57b847;}.cls-5{fill:#fff;}</style></defs><title>Artboard 1</title><path class="cls-1" d="M344.06,74.49l5.88,35.26,3.35-35.26h16.57l3.58,35.26,5.88-35.26h17.63l-11.75,82.28H367.56l-5.88-29.38-5.88,29.38H338.18L326.43,74.49Z"/><path class="cls-1" d="M438.09,74.49V92.12H414.58v11.75h17.63v17.63H414.58v17.63h23.51v17.63H396.95V74.49Z"/><path class="cls-1" d="M467.47,74.49Q491,74.49,491,98q0,17.63-11.75,17.63,11.75,0,11.75,17.63,0,23.51-23.51,23.51H444V74.49Zm-5.88,17.63v11.75h5.88q5.88,0,5.88-5.88t-5.88-5.88Zm0,29.38v17.63h5.88q5.88,0,5.88-5.88v-5.88q0-5.88-5.88-5.88Z"/><path class="cls-2" d="M520.36,74.49q23.51,0,23.51,23.51,0,17.63-11.75,17.63,11.75,0,11.75,17.63,0,23.51-23.51,23.51H496.85V74.49Zm-5.88,17.63v11.75h5.88q5.88,0,5.88-5.88t-5.88-5.88Zm0,29.38v17.63h5.88q5.88,0,5.88-5.88v-5.88q0-5.88-5.88-5.88Z"/><path class="cls-2" d="M549.75,74.49h17.63v58.77q0,5.88,5.88,5.88t5.88-5.88V74.49h17.63v58.77q0,23.51-23.51,23.51t-23.51-23.51Z"/><path class="cls-2" d="M602.64,74.49h17.63v64.65H637.9v17.63H602.64Z"/><path class="cls-2" d="M643.78,74.49h17.63v64.65H679v17.63H643.78Z"/><path class="cls-1" d="M684.91,74.49h17.63v82.28H684.91Z"/><path class="cls-1" d="M726.05,156.77H708.42V74.49h17.63l11.75,41.14V74.49h17.63v82.28H737.8l-11.75-41.14Z"/><path class="cls-1" d="M784.82,74.49q23.51,0,23.51,23.51v35.26q0,23.51-23.51,23.51H761.31V74.49Zm-5.88,64.65h5.88q5.88,0,5.88-5.88V98q0-5.88-5.88-5.88h-5.88Z"/><path class="cls-1" d="M814.2,74.49h17.63v82.28H814.2Z"/><path class="cls-1" d="M868.21,156.77l-3.35-17.34H851.64l-3.06,17.34H831.89l16.51-82.28h19.8l16.34,82.28Zm-6.41-32.67L858.1,104l-3.53,20.1Z"/><path d="M333.69,184.78c-5.63-4.33-11.66-8.36-16.43-13.52s-8.27-11.4-12-17.35c-1.1-1.73-1.2-4.1-1.71-6-3.39-2.57-10.29.69-10.42-7.23,20.52,5.24,40.39,6.3,58.94-7.13-5.58-8.95-13-15.09-21-20.63C315.2,102,297.09,96.88,278.85,91.89,267.12,88.69,255.61,84.71,244,81a8.33,8.33,0,0,1-4.39-3.43c4.4,1.25,8.75,2.72,13.21,3.7,8.47,1.87,14.75-.85,19-8.43a59.1,59.1,0,0,0,4.83-11.5c4.06-13.24,9.86-25.21,22.62-32.76-5.42-1.22-13.14.21-20.38,3.64-9.3,4.41-16.38,11.33-22.54,19.48a10.94,10.94,0,0,1-6.79,3.95c-7.92.83-15.7-.06-22.62-4.64a2.23,2.23,0,0,0-.91-.4c-9.89-1.12-15.63-8.7-22.59-14.42-3.48-2.86-7.27-5.33-11.37-8.31,8.64-5.39,14.33-12.72,15.37-23.93-12.63,10.5-27.39,9.71-41.81,10.43-5,.25-10.09,0-15,.88-9.1,1.58-10.44,4.9-6.06,13.24l1.1,2.08c-5.7,4.21-11.8,7.65-16.5,12.45-6.6,6.74-12.16,14.5-18.19,21.81a34.64,34.64,0,0,1-4.22,4.79C91.88,82,79.79,96.42,74.63,115.66a34.78,34.78,0,0,0-.81,3.91c-.64,4.3-1.55,8.18-5.47,11.16-3.56,2.7-4.6,6.8-4.55,11.57.2,17.25-9.77,29.83-26.29,33.87a10,10,0,0,1-3.48.11c-13.08-1.53-25.12,8-27.49,21.08A13.75,13.75,0,0,1,6,199.45h347.4C348.52,182.87,335.64,186.28,333.69,184.78Zm-1.39-55.26a76.85,76.85,0,0,1-40.68-.15,4.72,4.72,0,0,1-2.65-1.92c-4.16-7.31-8.19-14.69-12.33-22.17C296.45,108.79,315.53,114.88,332.3,129.53Zm-218.23,53c-1.26,1-4.24,1.19-5.47.35A134.31,134.31,0,0,1,94,171.54c-4.18-3.78-8.44-5.11-13.7-2.86-2.24,1-4.55,1.78-7.58,3,1.06-7.81,5.65-12.16,10.84-16.18,1.38-1.07,3-2.31,3.6-3.84,4.3-10,12.23-14.46,22.63-15.73,3.26-.4,5.12.73,7.37,2.86,3.35,3.18,7.3,5.75,11.07,8.46,2.79,2,6,3.52,8.51,5.84,5.67,5.3,11.5,8.62,19.16,4.07a17.24,17.24,0,0,1,2.79-.86c-1.3,3.15-1.73,6-3.33,7.76-4.7,5.27-10.81,9.26-17.83,9.06C128,172.82,121.09,177.22,114.07,182.52Zm72-5.13c-8.21,3.31-16.45,6.65-21.37,14.77a2.32,2.32,0,0,1-1.47,1.13c-5.15.08-10.3.05-15.45.05l-.41-2.4c5-2.45,10-4.88,15-7.38,1.27-.64,3.06-1.19,3.55-2.27,4.75-10.51,13.13-15.51,23.84-16.32L195,153.15l10,5.78C200.9,167.54,194.92,173.84,186.09,177.39Zm117.49,8c-13.23-.76-26.09-1.18-38.87-2.36a23.53,23.53,0,0,0-14.65,3.19c-5.75,3.26-11.86,7.16-18.15,7.91-10.84,1.29-21.94.36-32.92.36l-1-1.84c2.81-2.69,5.23-6.07,8.51-7.93,5-2.82,7.82-6,9.38-12,1.5-5.72,6.21-10.6,9.67-16.09-4.14-3.72-8.89-7.88-10.32-16.14,10.65,0,20.6-.24,30.51.16,2.53.1,5.27,1.85,7.41,3.49,4.51,3.44,8.55,7.49,13,11,7.78,6.05,15.91,11.22,26.58,8a4.42,4.42,0,0,1,3.48,1C302.72,169.75,304.43,177,303.58,185.41Z"/><path d="M114.7,78.87c-8.27,17.54-5.12,34.55,2.65,51.46a40.63,40.63,0,0,1-6.06-6.93c-1.79-2.53-3.42-5.18-5.06-7.7-9.88,4.26-14.78,8.74-25.87,23.57l.3-3.75c-4.72,7.33-8.32,15-11.87,22.7-3.67,8-9.61,13.22-18.19,15.41a35.62,35.62,0,0,0,14.76-23.08,86.09,86.09,0,0,0,.8-9.47c.38-5,5.16-9.59,8.62-8.29,3.13-21.66,13.94-39,30.5-54.63-.24,2.95-.34,4.44-.5,5.93s-.36,2.86-.55,4.29c7.6-23.89,23.6-39.85,44.81-50.63l17.58,15.9-14.91-3.58,5.72,8c-15.13,11-26.89,28.09-25.57,37.81,6.63-14.18,15.25-25.86,30-31.73l5.06,5.6c-12.56,8-22.65,17.49-27.44,31.59,5.45-7.05,11.28-13.57,19.31-16.92-4.81,7.88-10.27,15.52-14.35,23.84-5.28,10.76-5.85,22.71-2.56,26.84,10.81-22.72,24.94-35.23,42.63-37.35-21.4,12-34.55,29.52-38.48,54.55-24.21-19.89-25.7-44.56-19-71.52-5.71,8.21-7.38,17.57-8.89,27.06C114,98.39,113.41,88.76,114.7,78.87Z"/><path d="M221.29,113.69a51.35,51.35,0,0,0,34-13.23L241.77,84.23c16.1,4.92,30.79,9.2,45.34,13.91,16.85,5.45,33.76,10.94,47.62,22.65,4,3.34,7.36,7.34,11.35,11.37-14.66,9.38-29.12,10.71-44.32,6.29-8.81-2.56-17.58-5.26-26.4-7.81a31,31,0,0,0-4.82-.63l-.17,1,9.4,5c-16,2.28-26.69-10-40.6-13.38a40.45,40.45,0,0,1,28.67.12l-6.46.68c9.2,2.6,17.5,5.05,25.85,7.29,11.16,3,22.41,5.9,34.07,4.3,5.46-.75,10.76-2.71,16.13-4.12l.14-2.05C325.18,121.09,315.11,110,299,107.72c-11.51-1.62-22.56-6.54-33.78-10.08-2.46-.77-4.81-1.91-7.21-2.87l1.07-.71c4.12,4.82,8.36,9.54,12.32,14.49s7.65,10.13,11.46,15.21c-22.66-10-47.77-9.26-54.64,2.67,8.39-1.33,15.2,2.32,22,5.92,11.22,5.94,22.78,10.41,35.86,9.2a4.63,4.63,0,0,1,3.44,1.94c2,3,3.65,6.27,6.08,10.58-3.31,1-6.6,3-9.65,2.67a33.56,33.56,0,0,1-13.64-4.21c-7.37-4.52-14.21-9.95-21.06-15.27-6.33-4.92-13.25-7.8-21.54-7.28l12,5.89-28.29,1.3Z"/><path d="M201.82,46.28l1-.7c1.77.91,3.52,1.84,5.31,2.71,3.13,1.54,6.75,4.85,9.34,4.19,5.65-1.45,10.12,1.46,11,4.8,1.34,5.06,5.8,7.11,7.48,11.24.88,2.17,2.57,5.35-3.05,6.3l15.8,24.77c-5.81,6.36-14,6.94-22.32,8.78l2.34,1.13c-5.45.55-10.74,2-12.68-5.32-.61-2.31-3.68-4.26-6-5.75-3.65-2.32-7.72-4-11.44-6.18-1.79-1.06-3.19-2.78-4.76-4.19l.95-1.76,17,4.37-5.58-13.45,9.1,4-6.72-8.49.54-.38,16.08,10.08c-.54-6.43-3.9-10.43-8.89-13.41-2.86-1.7-5.95-3.18-8.38-5.38-3.29-3-2.75-4.78,1.12-6.42Z"/><path d="M208,113.4c2.65,14.24-4.19,22.38-33.16,39h10.42c-8.18,12.46-25.69,23.16-37.58,23.27,7.11-5.61,16.56-9.18,15.64-21.16-.36-4.62,2.27-9.24,3.14-14,2.7-14.88,12.15-25.08,26.9-28.91L183,123.89l1.07.9C195.52,115.18,201,112.55,208,113.4Z"/><path class="cls-3" d="M296.24,164.16a4.42,4.42,0,0,0-3.48-1c-10.67,3.17-18.8-2-26.58-8-4.48-3.49-8.52-7.54-13-11-2.15-1.64-4.88-3.38-7.41-3.49-9.92-.4-19.86-.16-30.51-.16,1.43,8.26,6.18,12.42,10.32,16.14-3.46,5.5-8.18,10.38-9.67,16.09-1.56,6-4.39,9.16-9.38,12-3.28,1.86-5.7,5.23-8.51,7.93l1,1.84c11,0,22.09.93,32.92-.36,6.29-.75,12.4-4.65,18.15-7.91A23.53,23.53,0,0,1,264.7,183c12.78,1.19,25.64,1.61,38.87,2.36C304.43,177,302.72,169.75,296.24,164.16Z"/><path class="cls-3" d="M296.24,164.16a4.42,4.42,0,0,0-3.48-1c-10.67,3.17-18.8-2-26.58-8-4.48-3.49-8.52-7.54-13-11-2.15-1.64-4.88-3.38-7.41-3.49-9.92-.4-19.86-.16-30.51-.16,1.43,8.26,6.18,12.42,10.32,16.14-3.46,5.5-8.18,10.38-9.67,16.09-1.56,6-4.39,9.16-9.38,12-3.28,1.86-5.7,5.23-8.51,7.93l1,1.84c11,0,22.09.93,32.92-.36,6.29-.75,12.4-4.65,18.15-7.91A23.53,23.53,0,0,1,264.7,183c12.78,1.19,25.64,1.61,38.87,2.36C304.43,177,302.72,169.75,296.24,164.16Z"/><path class="cls-3" d="M195,153.15,189.77,165c-10.71.8-19.09,5.81-23.84,16.32-.49,1.08-2.28,1.63-3.55,2.27-5,2.5-10,4.93-15,7.38l.41,2.4c5.15,0,10.3,0,15.45-.05a2.32,2.32,0,0,0,1.47-1.13c4.92-8.13,13.17-11.47,21.37-14.77,8.83-3.56,14.81-9.86,18.9-18.46Z"/><path class="cls-3" d="M195,153.15,189.77,165c-10.71.8-19.09,5.81-23.84,16.32-.49,1.08-2.28,1.63-3.55,2.27-5,2.5-10,4.93-15,7.38l.41,2.4c5.15,0,10.3,0,15.45-.05a2.32,2.32,0,0,0,1.47-1.13c4.92-8.13,13.17-11.47,21.37-14.77,8.83-3.56,14.81-9.86,18.9-18.46Z"/><path class="cls-3" d="M155.41,164c1.59-1.79,2-4.6,3.33-7.76a17.24,17.24,0,0,0-2.79.86c-7.66,4.55-13.49,1.24-19.16-4.07-2.48-2.32-5.72-3.83-8.51-5.84-3.77-2.72-7.72-5.29-11.07-8.46-2.25-2.13-4.11-3.26-7.37-2.86-10.4,1.28-18.33,5.71-22.63,15.73-.65,1.52-2.22,2.77-3.6,3.84-5.19,4-9.78,8.37-10.84,16.18,3-1.18,5.33-2,7.58-3,5.26-2.25,9.52-.93,13.7,2.86a134.31,134.31,0,0,0,14.57,11.33c1.23.84,4.21.6,5.47-.35,7-5.3,14-9.7,23.51-9.43C144.59,173.3,150.71,169.3,155.41,164Z"/><path class="cls-3" d="M296.24,164.16a4.42,4.42,0,0,0-3.48-1c-10.67,3.17-18.8-2-26.58-8-4.48-3.49-8.52-7.54-13-11-2.15-1.64-4.88-3.38-7.41-3.49-9.92-.4-19.86-.16-30.51-.16,1.43,8.26,6.18,12.42,10.32,16.14-3.46,5.5-8.18,10.38-9.67,16.09-1.56,6-4.39,9.16-9.38,12-3.28,1.86-5.7,5.23-8.51,7.93l1,1.84c11,0,22.09.93,32.92-.36,6.29-.75,12.4-4.65,18.15-7.91A23.53,23.53,0,0,1,264.7,183c12.78,1.19,25.64,1.61,38.87,2.36C304.43,177,302.72,169.75,296.24,164.16Z"/><path d="M237,103.48l-8.29-12.26C228,101.39,230.4,104.88,237,103.48Z"/><path class="cls-4" d="M199.19,50.23l0,.2C199.2,50.36,199.19,50.29,199.19,50.23Z"/><path d="M199.16,49.91h0c0,.11,0,.22,0,.32Z"/><path class="cls-5" d="M156,34.31s17.73,17.82,36.72,24.17c0,0,7-1,6.48-8.06l0-.2c0-.1,0-.21,0-.32-17-1.59-25.36-11.07-25.36-11.07,2.33,4.8,7.57,7.57,7.57,7.57A65.19,65.19,0,0,1,149.49,26C150.29,28.17,152.3,30.87,156,34.31Z"/><path class="cls-3" d="M286.45,34.95l-.34.21Z"/><path class="cls-5" d="M271.15,61c2.52-17.18,12.93-24.59,14.95-25.88-12.56,7.58-15.38,19.17-15.38,19.17-3.6,18-12.88,17.24-12.88,17.24-3.6-1.75,1.31-3.82,1.31-3.82a31.62,31.62,0,0,0-19.92,4.46c2.31,1.34,16.63,4.25,16.63,4.25C268.85,80.1,271.15,61,271.15,61Z"/><path class="cls-5" d="M151.72,50.07l5.44,1.31,9.47,2.27-6.66-6L149,37.75c-21.21,10.78-37.21,26.75-44.81,50.63.18-1.43.39-2.86.55-4.29s.25-3,.5-5.93C93.74,89.09,85,100.81,79.69,114.24c6.13-15.46,22.67-30,22.67-30l2.84,9.16c6.11-22.48,19-27.28,19-27.28-5,7.2-4.58,16.15-4.58,16.15a32,32,0,0,1,15.49-14.4,23.74,23.74,0,0,0-3.49,16.37c-.06-3.26,2.48-7.63,5.91-12C145.6,62.22,157.44,58,157.44,58l-2.57-3.58Z"/><path class="cls-5" d="M185.31,152.35H174.88c29-16.57,35.81-24.71,33.16-39A17.54,17.54,0,0,0,198,115.06h0s9.56,17.62-26.23,34c0,0,5.46,0,8.51-2,0,0-10.37,7-13.63,7.2,0,0,9.47,1.92,14.07,0,0,0-13.79,19.33-33,21.34C159.62,175.52,177.12,164.81,185.31,152.35Z"/><path class="cls-4" d="M258,94.77c.88.36,1.76.73,2.63,1.11L259,94.06Z"/><path class="cls-5" d="M254.54,124.24c5.43,3.92,23.42,3.94,23.42,3.94h0c-5.32-1.5-10.76-3.08-16.56-4.72l6.46-.68a40.45,40.45,0,0,0-28.67-.12C250,121.35,254.54,124.24,254.54,124.24Z"/><path class="cls-3" d="M237,103.48l-8.29-12.26C228,101.39,230.4,104.88,237,103.48Z"/><path class="cls-4" d="M190.23,84.53Z"/><path class="cls-4" d="M190.09,84.8Z"/><path class="cls-4" d="M190.16,84.66l-.07.14Z"/><path class="cls-4" d="M199.89,43.49Z"/><path class="cls-4" d="M190.16,84.66l.07-.14Z"/><path class="cls-4" d="M199.89,43.49Z"/><path class="cls-2" d="M181.36,46.4s-5.24-2.76-7.57-7.57c0,0,8.39,9.48,25.36,11.07A16,16,0,0,0,198,45.79s-22.09-9.36-26.14-16c0,0,20.54-2.11,28-16.61,0,0-11.51,8.16-32.05,5.74,0,0-22.07-2.65-18.35,7.14A65.19,65.19,0,0,0,181.36,46.4Z"/><path class="cls-2" d="M259.15,67.75s-4.91,2.07-1.31,3.82c0,0,9.27.76,12.88-17.24,0,0,2.82-11.59,15.38-19.17l.34-.21c-14.69,3.64-24.15,17.48-24.15,17.48C256.35,63.83,250,64.56,250,64.56a19.93,19.93,0,0,0,4.49-6.31c-5.46,2.55-19.05,1.34-19.05,1.34a38.84,38.84,0,0,1,3.76,12.62A31.62,31.62,0,0,1,259.15,67.75Z"/><path class="cls-2" d="M141.91,135.06c-3.29-4.13-2.71-16.08,2.56-26.84,4.08-8.32,9.54-16,14.35-23.84-8,3.35-13.87,9.87-19.31,16.92,4.79-14.1,14.88-23.63,27.44-31.59l-5.06-5.6c-14.75,5.87-23.38,17.55-30,31.73C130.55,86.12,142.32,69,157.44,58l-2.58-3.58s-23.44,20-23.27,29.78a23.74,23.74,0,0,1,3.49-16.37,32,32,0,0,0-15.49,14.4s-.44-8.95,4.58-16.15c0,0-12.88,4.8-19,27.28l-2.84-9.16s-16.53,14.55-22.67,30a82.38,82.38,0,0,0-4.91,18.55c-3.46-1.29-8.24,3.3-8.62,8.29a86.09,86.09,0,0,1-.8,9.47,35.62,35.62,0,0,1-14.76,23.08c8.58-2.2,14.51-7.45,18.19-15.41,3.55-7.7,7.15-15.37,11.87-22.7l-.3,3.75c11.09-14.83,16-19.31,25.87-23.57,1.64,2.51,3.26,5.16,5.06,7.7a40.64,40.64,0,0,0,6.06,6.93c-7.77-16.9-10.92-33.92-2.65-51.46-1.29,9.89-.67,19.52,3.42,28.92,1.51-9.49,3.18-18.85,8.89-27.06-6.66,27-5.17,51.64,19,71.52,3.93-25,17.08-42.55,38.48-54.55C166.85,99.82,152.71,112.34,141.91,135.06Z"/><path class="cls-2" d="M180.7,154.28c-4.6,1.92-14.07,0-14.07,0,3.27-.18,13.63-7.2,13.63-7.2-3.06,2-8.51,2-8.51,2,35.79-16.37,26.23-34,26.23-34h0c-3.74,1.73-8,4.82-13.88,9.74l-1.07-.9,10.37-12.38c-14.75,3.83-24.21,14-26.9,28.91-.87,4.79-3.5,9.41-3.14,14,.92,12-8.52,15.55-15.64,21.16C166.91,173.61,180.7,154.28,180.7,154.28Z"/><path class="cls-2" d="M334.73,120.79c-13.86-11.7-30.77-17.19-47.62-22.65-14.55-4.71-29.24-9-45.34-13.91l13.56,16.24a51.35,51.35,0,0,1-34,13.23l-7.83,23.47,28.29-1.3-12-5.89c8.29-.52,15.21,2.36,21.54,7.28,6.85,5.32,13.69,10.75,21.06,15.27a33.56,33.56,0,0,0,13.64,4.21c3,.33,6.34-1.67,9.65-2.67-2.43-4.31-4.08-7.57-6.08-10.58a4.63,4.63,0,0,0-3.44-1.94c-13.08,1.21-24.65-3.26-35.86-9.2-6.81-3.61-13.63-7.26-22-5.92,6.88-11.92,32-12.66,54.64-2.67-3.81-5.08-7.5-10.26-11.46-15.21-3.46-4.32-7.14-8.47-10.76-12.67-.88-.37-1.75-.75-2.63-1.11l1.07-.71,1.56,1.82c1.51.64,3,1.28,4.57,1.77,11.23,3.53,22.28,8.46,33.78,10.08,16.14,2.27,26.21,13.38,38.63,21.14l-.14,2.05c-5.37,1.41-10.67,3.37-16.13,4.12-11.66,1.6-22.92-1.31-34.07-4.3-3.09-.83-6.17-1.68-9.29-2.56h0s-18,0-23.42-3.94c0,0-4.52-2.89-15.35-1.59,13.91,3.34,24.63,15.66,40.6,13.38l-9.4-5,.17-1a31,31,0,0,1,4.82.63c8.81,2.55,17.58,5.25,26.4,7.81,15.2,4.42,29.65,3.08,44.32-6.29C342.1,128.13,338.69,124.13,334.73,120.79Z"/><path class="cls-2" d="M243.44,103.65c6.66-3.27-8-20.84-8-20.84-6.77-6.55-8.29-12.44-8.29-12.44,3.71,2.29,4.47-.55,4.47-.55-10.26-5.78-7.42-8.95-7.42-8.95,2.51-6.44-7.42-8.18-7.42-8.18l0-.13c-2.52,0-5.8-2.86-8.67-4.27-1.78-.87-6.51-3.9-8.28-4.81,2.42,3.67,6.77,10.14,9.18,13.79-3.86,1.64-4.41,3.46-1.12,6.42,2.43,2.19,5.52,3.68,8.38,5.38,5,3,8.35,7,8.89,13.41L207.48,71.36l7.84,9.92-9.1-4,5.58,13.45c-5.42-1.4-15.85-4.52-21.63-6,1.57,1.42,6.68,6.53,8.47,7.59,3.72,2.21,7.79,3.86,11.44,6.18,2.34,1.49,5.42,3.44,6,5.75,1.93,7.31,7.23,5.87,12.68,5.32l-2.34-1.13c6-1.33,12-2,17.06-4.71ZM228.68,91.22,237,103.48C230.4,104.88,228,101.39,228.68,91.22Z"/><path class="cls-5" d="M224.24,60.88s-2.84,3.16,7.42,8.95c0,0-.76,2.84-4.47.55,0,0,1.52,5.89,8.29,12.44,0,0,14.63,17.57,8,20.84h0a19.5,19.5,0,0,0,5.26-4.06l-15.8-24.77c5.62-1,3.94-4.13,3.05-6.3-1.68-4.13-6.14-6.18-7.48-11.24-.89-3.34-5.36-6.25-11-4.8a2.85,2.85,0,0,1-.67.08l0,.13S226.75,54.44,224.24,60.88Z"/><path class="cls-3" d="M195,153.15,189.77,165c-10.71.8-19.09,5.81-23.84,16.32-.49,1.08-2.28,1.63-3.55,2.27-5,2.5-10,4.93-15,7.38l.41,2.4c5.15,0,10.3,0,15.45-.05a2.32,2.32,0,0,0,1.47-1.13c4.92-8.13,13.17-11.47,21.37-14.77,8.83-3.56,14.81-9.86,18.9-18.46Z"/><path class="cls-3" d="M296.24,164.16a4.42,4.42,0,0,0-3.48-1c-10.67,3.17-18.8-2-26.58-8-4.48-3.49-8.52-7.54-13-11-2.15-1.64-4.88-3.38-7.41-3.49-9.92-.4-19.86-.16-30.51-.16,1.43,8.26,6.18,12.42,10.32,16.14-3.46,5.5-8.18,10.38-9.67,16.09-1.56,6-4.39,9.16-9.38,12-3.28,1.86-5.7,5.23-8.51,7.93l1,1.84c11,0,22.09.93,32.92-.36,6.29-.75,12.4-4.65,18.15-7.91A23.53,23.53,0,0,1,264.7,183c12.78,1.19,25.64,1.61,38.87,2.36C304.43,177,302.72,169.75,296.24,164.16Z"/><path class="cls-3" d="M155.41,164c1.59-1.79,2-4.6,3.33-7.76a17.24,17.24,0,0,0-2.79.86c-7.66,4.55-13.49,1.24-19.16-4.07-2.48-2.32-5.72-3.83-8.51-5.84-3.77-2.72-7.72-5.29-11.07-8.46-2.25-2.13-4.11-3.26-7.37-2.86-10.4,1.28-18.33,5.71-22.63,15.73-.65,1.52-2.22,2.77-3.6,3.84-5.19,4-9.78,8.37-10.84,16.18,3-1.18,5.33-2,7.58-3,5.26-2.25,9.52-.93,13.7,2.86a134.31,134.31,0,0,0,14.57,11.33c1.23.84,4.21.6,5.47-.35,7-5.3,14-9.7,23.51-9.43C144.59,173.3,150.71,169.3,155.41,164Z"/><path class="cls-3" d="M291.62,129.38a76.85,76.85,0,0,0,40.68.15c-16.77-14.64-35.85-20.74-55.66-24.24,4.14,7.48,8.16,14.86,12.33,22.17A4.72,4.72,0,0,0,291.62,129.38Z"/><path class="cls-1" d="M505.66,186.22A9.38,9.38,0,0,1,501.8,190a12.29,12.29,0,0,1-5.92,1.35h-8V170.06h8a12.51,12.51,0,0,1,5.93,1.32,9.25,9.25,0,0,1,3.84,3.73,12.15,12.15,0,0,1,0,11.09Zm-5.54-1.07a6.86,6.86,0,0,0,0-9,6.51,6.51,0,0,0-4.68-1.6H493v12.16h2.44A6.51,6.51,0,0,0,500.12,185.15Z"/><path class="cls-1" d="M515.07,170.06v21.29h-5.15V170.06Z"/><path class="cls-1" d="M535.18,171.81a8.34,8.34,0,0,1,3.22,5.3h-5.45a4.2,4.2,0,0,0-1.66-1.82,5.06,5.06,0,0,0-2.68-.68,5,5,0,0,0-3.91,1.64,6.4,6.4,0,0,0-1.48,4.44,6.5,6.5,0,0,0,1.55,4.67,5.81,5.81,0,0,0,4.41,1.63,5.33,5.33,0,0,0,3.22-1,5.38,5.38,0,0,0,2-2.88h-6.5v-3.7h10.81v5.09a10.38,10.38,0,0,1-1.93,3.46,9.93,9.93,0,0,1-3.39,2.59,10.73,10.73,0,0,1-4.71,1,11.19,11.19,0,0,1-5.63-1.37,9.38,9.38,0,0,1-3.72-3.84,12.76,12.76,0,0,1,0-11.26,9.41,9.41,0,0,1,3.7-3.84,11,11,0,0,1,5.58-1.37A10.63,10.63,0,0,1,535.18,171.81Z"/><path class="cls-1" d="M546.71,170.06v21.29h-5.15V170.06Z"/><path class="cls-1" d="M565.56,170.06v4.09h-5.78v17.19H554.6V174.16h-5.72v-4.09Z"/><path class="cls-1" d="M580.91,187.47h-8l-1.33,3.88h-5.42l7.8-21.14h5.93l7.8,21.14h-5.48Zm-1.33-3.91-2.65-7.83-2.68,7.83Z"/><path class="cls-1" d="M594.85,187.41h6.87v3.94h-12V170.06h5.15Z"/><path class="cls-1" d="M634.05,170.21v21.14H628.9V178.13l-4.58,13.22h-4.46l-4.61-13.25v13.25h-5.15V170.21h6.29l5.75,14.72,5.63-14.72Z"/><path class="cls-1" d="M642.75,174.16v4.46h7.2v3.88h-7.2v4.73h8.1v4.13H637.6V170.06h13.25v4.09Z"/><path class="cls-1" d="M658.92,174.16v4.46h7.2v3.88h-7.2v4.73H667v4.13H653.77V170.06H667v4.09Z"/><path class="cls-1" d="M685.23,170.06v4.09h-5.78v17.19h-5.18V174.16h-5.72v-4.09Z"/><path class="cls-1" d="M701.84,188.46a6,6,0,0,1-2.53,2.26,8.92,8.92,0,0,1-4,.84,9.54,9.54,0,0,1-5.9-1.75,6.33,6.33,0,0,1-2.53-4.88h5.48a2.89,2.89,0,0,0,.86,1.9,2.64,2.64,0,0,0,1.88.69,2.19,2.19,0,0,0,1.57-.54,1.9,1.9,0,0,0,.57-1.45,1.87,1.87,0,0,0-.53-1.36,4.12,4.12,0,0,0-1.31-.89q-.78-.35-2.17-.83a26.55,26.55,0,0,1-3.3-1.34,6.07,6.07,0,0,1-2.2-1.93,6.28,6.28,0,0,1,0-6.61,6.13,6.13,0,0,1,2.67-2.12,9.71,9.71,0,0,1,3.9-.74,8.74,8.74,0,0,1,5.65,1.69,6.44,6.44,0,0,1,2.36,4.64h-5.57a2.87,2.87,0,0,0-.77-1.67,2.26,2.26,0,0,0-1.67-.62,2.16,2.16,0,0,0-1.46.48,1.77,1.77,0,0,0-.56,1.42,1.79,1.79,0,0,0,.5,1.28,3.78,3.78,0,0,0,1.25.86q.75.33,2.17.84a24,24,0,0,1,3.34,1.37,6.4,6.4,0,0,1,2.23,2,5.63,5.63,0,0,1,.93,3.37A5.87,5.87,0,0,1,701.84,188.46Z"/><path class="cls-1" d="M728,172a9.78,9.78,0,0,1,3.45,5.78H726a5,5,0,0,0-1.85-2.32,5.18,5.18,0,0,0-3-.84,4.52,4.52,0,0,0-3.64,1.66,7.74,7.74,0,0,0,0,8.84,4.54,4.54,0,0,0,3.64,1.64,5.18,5.18,0,0,0,3-.84,5,5,0,0,0,1.85-2.29h5.45a9.84,9.84,0,0,1-3.45,5.77,10.37,10.37,0,0,1-6.73,2.15,10.61,10.61,0,0,1-5.45-1.37,9.29,9.29,0,0,1-3.63-3.84,13,13,0,0,1,0-11.26,9.29,9.29,0,0,1,3.63-3.84,10.62,10.62,0,0,1,5.45-1.37A10.41,10.41,0,0,1,728,172Z"/><path class="cls-1" d="M745.3,191.35l-4.61-8h-1.17v8h-5.15V170.06h8.79a9.5,9.5,0,0,1,4.28.87,6,6,0,0,1,2.62,2.39,6.86,6.86,0,0,1,.87,3.48,6.18,6.18,0,0,1-1.28,3.94,6.55,6.55,0,0,1-3.72,2.23l5.06,8.37Zm-5.78-11.56h3.19a3.21,3.21,0,0,0,2.26-.68,2.61,2.61,0,0,0,.72-2,2.66,2.66,0,0,0-.74-2,3.09,3.09,0,0,0-2.24-.72h-3.19Z"/><path class="cls-1" d="M758.67,174.16v4.46h7.2v3.88h-7.2v4.73h8.1v4.13H753.52V170.06h13.25v4.09Z"/><path class="cls-1" d="M782.87,187.47h-8l-1.33,3.88h-5.42l7.8-21.14h5.93l7.8,21.14H784.2Zm-1.33-3.91-2.65-7.83-2.68,7.83Z"/><path class="cls-1" d="M807,170.06v4.09h-5.78v17.19H796V174.16h-5.72v-4.09Z"/><path class="cls-1" d="M814.28,170.06v21.29h-5.15V170.06Z"/><path class="cls-1" d="M821.8,170.06l5.21,16,5.21-16h5.51l-7.41,21.29h-6.65l-7.38-21.29Z"/><path class="cls-1" d="M844.87,170.06v21.29h-5.15V170.06Z"/><path class="cls-1" d="M863.71,170.06v4.09h-5.78v17.19h-5.18V174.16H847v-4.09Z"/><path class="cls-1" d="M884.28,170.06l-7.38,14.21v7.08h-5.18v-7.08l-7.38-14.21h5.9l4.09,8.67,4.09-8.67Z"/><rect class="cls-2" x="360.81" y="178.62" width="115.85" height="4.76"/></svg>